<svg xmlns="http://www.w3.org/2000/svg" width="512" height="512" viewBox="0 0 512 512">
  <circle style="fill:#ffcc04;" cx="256" cy="256" r="256" class="ifthen_icon_lighten_back"/>
  <circle style="fill:#e21e30;" cx="289.06667" cy="256.00001" r="222.93334"/>
  <path style="fill:#fff;" d="M376.53333,292.26666c-5.33333,45.86668-52.26666,65.06667-99.19999,65.06667-69.33333,0-106.66667-40.53333-106.66667-101.33333s42.66667-101.33333,109.86666-101.33333,69.33333,11.73334,88.53333,41.6l-30.93333,14.93333c-6.4-8.53333-13.86666-17.06667-23.46667-22.4-11.73334-6.4-24.53333-9.6-38.4-9.6-46.93333,0-69.33333,35.19999-69.33333,78.93333s23.46667,77.86668,70.4,77.86668,11.73334-1.06667,17.06667-2.13334c11.73334-2.13334,22.4-7.46667,32-14.93333,6.4-6.4,10.66667-14.93333,12.80001-23.46667h37.33333v-3.19999Z" class="ifthen_icon_nofill"/>
</svg>