<svg version="1.1" id="Layer_1" xmlns="http://www.w3.org/2000/svg" x="0" y="0" viewBox="0 0 68 48" xml:space="preserve"><style>.st2{fill:#8a8895}.st3{fill:#babbc1}.st5{fill:#fff}</style><path id="XMLID_11_" d="M60.5 48H7.4C3.5 48 .3 44.8.3 40.9V7.1C.2 3.2 3.5 0 7.4 0h53.3c3.9 0 7.1 3.2 7.1 7.1v33.7c-.2 4-3.4 7.2-7.3 7.2z" fill="#4b66ab"/><path id="XMLID_9_" d="M21.6 21.3H10.9c-2 0-3.5-1.6-3.5-3.5v-7.2c0-2 1.6-3.5 3.5-3.5h10.7c2 0 3.5 1.6 3.5 3.5v7.2c0 1.9-1.6 3.5-3.5 3.5z" fill="#ffd10c"/><path id="XMLID_7_" class="st2" d="M30.5 40.9H9.2c-.9 0-1.8-.8-1.8-1.8 0-.9.8-1.8 1.8-1.8h21.3c.9 0 1.8.8 1.8 1.8-.1.9-.9 1.8-1.8 1.8z"/><path id="XMLID_6_" class="st3" d="M30.5 33.7h-7.1c-.9 0-1.8-.8-1.8-1.8 0-.9.8-1.8 1.8-1.8h7.1c.9 0 1.8.8 1.8 1.8-.1 1-.9 1.8-1.8 1.8z"/><path id="XMLID_5_" class="st3" d="M44.7 33.7h-7.1c-.9 0-1.8-.8-1.8-1.8 0-.9.8-1.8 1.8-1.8h7.1c.9 0 1.8.8 1.8 1.8-.1 1-.9 1.8-1.8 1.8z"/><path id="XMLID_4_" class="st2" d="M44.7 40.9h-7.1c-.9 0-1.8-.8-1.8-1.8 0-.9.8-1.8 1.8-1.8h7.1c.9 0 1.8.8 1.8 1.8-.1.9-.9 1.8-1.8 1.8z"/><path id="XMLID_3_" class="st3" d="M58.8 33.7h-7.1c-.9 0-1.8-.8-1.8-1.8 0-.9.8-1.8 1.8-1.8h7.1c.9 0 1.8.8 1.8 1.8s-.8 1.8-1.8 1.8z"/><path id="XMLID_1_" d="M16.2 12.4V7.1h-3.5v14.2h3.5V16h8.9v-3.6h-8.9z" fill="#f89621"/><g id="XMLID_19_"><g id="XMLID_20_" transform="matrix(.1 0 0 -.1 0 512)"><path id="XMLID_17_" class="st5" d="M533.5 5048.1c-.4-.1-15.9-9.3-34.4-20.4-30.6-18.2-33.7-20.1-34.2-21-.5-.9-.7-1.5-.7-5.5 0-4.4 0-4.4.7-5.1l.7-.7h139.1l.7.7c.7.7.7.8.7 5.1 0 5.4-.1 5.9-3 7.7-1.1.7-16.3 9.8-34.1 20.4-34.4 20.3-33.6 19.9-35.5 18.8z"/><path id="XMLID_16_" class="st5" d="M480.4 4985.7l-.7-.7v-50.4l.7-.7.7-.7h15.1l.7.7.7.7v50.4l-.7.7-.7.7H481l-.6-.7z"/><path id="XMLID_15_" class="st5" d="M511.5 4985.7l-.7-.7v-50.4l.7-.7.7-.7h15.1l.7.7.7.7v50.4l-.7.7-.7.7h-15.1l-.7-.7z"/><path id="XMLID_14_" class="st5" d="M542.5 4985.7l-.7-.7v-50.4l.7-.7.7-.7h15.1l.7.7.7.7v50.4l-.7.7-.7.7h-15.1l-.7-.7z"/><path id="XMLID_13_" class="st5" d="M573.5 4985.7l-.7-.7v-50.4l.7-.7.7-.7h15.1l.7.7.7.7v50.4l-.7.7-.7.7h-15.1l-.7-.7z"/><path id="XMLID_12_" class="st5" d="M464.9 4923.7l-.7-.7v-15.1l.7-.7.7-.7h139.1l.7.7.7.7v15.1l-.7.7-.7.7H465.5l-.6-.7z"/></g></g></svg>