<svg version="1.1" id="Layer_1" xmlns="http://www.w3.org/2000/svg" x="0" y="0" viewBox="0 0 50 48" xml:space="preserve"><style>.st2{fill:#b9bbc0}.st3{fill:#8a8895}.st5{fill:#fff}</style><path id="XMLID_11_" d="M44.6 41.8H5.3c-2.9 0-5.3-2.4-5.3-5.3v-25c0-2.9 2.4-5.3 5.3-5.3h39.4c2.9 0 5.3 2.4 5.3 5.3v25c-.1 2.9-2.5 5.3-5.4 5.3z" fill="#4965aa"/><path id="XMLID_9_" d="M15.8 22H7.9c-1.5 0-2.6-1.2-2.6-2.6v-5.3c0-1.5 1.2-2.6 2.6-2.6h7.9c1.5 0 2.6 1.2 2.6 2.6v5.3c0 1.4-1.2 2.6-2.6 2.6z" fill="#ffd107"/><path id="XMLID_8_" class="st2" d="M11.8 31.2H6.6c-.7 0-1.3-.6-1.3-1.3s.6-1.3 1.3-1.3h5.3c.7 0 1.3.6 1.3 1.3s-.6 1.3-1.4 1.3z"/><path id="XMLID_7_" class="st3" d="M22.4 36.5H6.6c-.7 0-1.3-.6-1.3-1.3s.6-1.3 1.3-1.3h15.8c.7 0 1.3.6 1.3 1.3s-.6 1.3-1.3 1.3z"/><path id="XMLID_6_" class="st2" d="M22.4 31.2h-5.3c-.7 0-1.3-.6-1.3-1.3 0-.7.6-1.3 1.3-1.3h5.3c.7 0 1.3.6 1.3 1.3 0 .7-.6 1.3-1.3 1.3z"/><path id="XMLID_5_" class="st2" d="M32.9 31.2h-5.3c-.7 0-1.3-.6-1.3-1.3 0-.7.6-1.3 1.3-1.3h5.3c.7 0 1.3.6 1.3 1.3 0 .7-.6 1.3-1.3 1.3z"/><path id="XMLID_4_" class="st3" d="M32.9 36.5h-5.3c-.7 0-1.3-.6-1.3-1.3s.6-1.3 1.3-1.3h5.3c.7 0 1.3.6 1.3 1.3s-.6 1.3-1.3 1.3z"/><path id="XMLID_3_" class="st2" d="M43.4 31.2h-5.3c-.7 0-1.3-.6-1.3-1.3 0-.7.6-1.3 1.3-1.3h5.3c.7 0 1.3.6 1.3 1.3 0 .7-.6 1.3-1.3 1.3z"/><path id="XMLID_1_" d="M11.8 15.4v-3.9H9.2V22h2.6v-3.9h6.6v-2.7h-6.6z" fill="#f8951d"/><g id="XMLID_19_"><g id="XMLID_20_" transform="matrix(.1 0 0 -.1 0 512)"><path id="XMLID_17_" class="st5" d="M393.2 5004.5c-.3-.1-11.8-6.9-25.4-15.1-22.7-13.5-25-14.9-25.3-15.6-.4-.7-.5-1.1-.5-4.1 0-3.3 0-3.3.5-3.8l.5-.5h103l.5.5c.5.5.5.6.5 3.8 0 4-.1 4.4-2.2 5.7-.8.5-12.1 7.3-25.2 15.1-25.6 15-25 14.7-26.4 14z"/><path id="XMLID_16_" class="st5" d="M353.9 4958.2l-.5-.5v-37.3l.5-.5.5-.5h11.2l.5.5.5.5v37.3l-.5.5-.5.5h-11.2l-.5-.5z"/><path id="XMLID_15_" class="st5" d="M376.9 4958.2l-.5-.5v-37.3l.5-.5.5-.5h11.2l.5.5.5.5v37.3l-.5.5-.5.5h-11.2l-.5-.5z"/><path id="XMLID_14_" class="st5" d="M399.9 4958.2l-.5-.5v-37.3l.5-.5.5-.5h11.2l.5.5.5.5v37.3l-.5.5-.5.5h-11.2l-.5-.5z"/><path id="XMLID_13_" class="st5" d="M422.9 4958.2l-.5-.5v-37.3l.5-.5.5-.5h11.2l.5.5.5.5v37.3l-.5.5-.5.5h-11.2l-.5-.5z"/><path id="XMLID_12_" class="st5" d="M342.4 4912.3l-.5-.5v-11.2l.5-.5.5-.5h103l.5.5.5.5v11.2l-.5.5-.5.5h-103l-.5-.5z"/></g></g></svg>