<svg xmlns="http://www.w3.org/2000/svg" width="500" height="222"><defs><linearGradient id="a" x1="0" x2="1" y1="0" y2="0" gradientTransform="matrix(264.44676 -143.7623 143.69046 264.57899 -18.702 161.13)" gradientUnits="userSpaceOnUse"><stop offset="0" style="stop-color:#6d388c;stop-opacity:1"/><stop offset=".754" style="stop-color:#0c68b0;stop-opacity:1"/><stop offset="1" style="stop-color:#0c68b0;stop-opacity:1"/></linearGradient><clipPath id="b"><path d="M246 72h253.875v78H246Zm0 0"/></clipPath></defs><path d="M.125 0v221.719H121.73c27.754 0 52.883-11.23 71.07-29.387 18.188-18.152 29.434-43.234 29.434-70.941V0Zm0 0" style="stroke:none;fill-rule:nonzero;fill:url(#a)"/><path d="M55.527 114.215h24.625c2.243 0 4.285-.485 6.13-1.461A14.821 14.821 0 0 0 91 108.855c1.305-1.625 2.316-3.5 3.04-5.632a20.533 20.533 0 0 0 1.085-6.66c0-2.383-.418-4.637-1.25-6.766-.832-2.129-1.953-3.988-3.363-5.578a15.425 15.425 0 0 0-4.989-3.739A14.02 14.02 0 0 0 79.5 79.13H55.527Zm-7.593 35.09v-76.89h31.894c3.324 0 6.383.702 9.168 2.112 2.781 1.407 5.188 3.246 7.211 5.524a26.103 26.103 0 0 1 4.773 7.742c1.157 2.887 1.739 5.812 1.739 8.77 0 3.18-.543 6.23-1.63 9.152-1.085 2.926-2.6 5.508-4.554 7.742-1.953 2.242-4.285 4.047-7 5.418-2.71 1.371-5.73 2.055-9.058 2.055h-24.95v28.375ZM180.938 79.129h-27.45v70.176h-7.593V79.129h-27.446v-6.715h62.489Zm0 0" style="stroke:none;fill-rule:nonzero;fill:#fff;fill-opacity:1"/><g clip-path="url(#b)"><path d="M475.34 125.926c-2.59 4.07-5.754 6.101-9.5 6.101-3.3 0-6.055-1.484-8.258-4.449-2.203-2.969-3.305-7.586-3.305-13.855 0-7.914 1.293-13.88 3.883-17.891 2.586-4.012 5.863-6.02 9.828-6.02 3.082 0 5.727 1.54 7.93 4.618 2.203 3.078 3.305 7.644 3.305 13.687 0 7.809-1.297 13.742-3.883 17.809m-74.504 2.144c-2.59 2.86-5.649 4.29-9.172 4.29-3.195 0-5.973-1.594-8.34-4.782-2.37-3.191-3.554-7.808-3.554-13.855 0-7.696 1.46-13.66 4.378-17.891 2.918-4.234 6.582-6.352 10.989-6.352h.824a28.507 28.507 0 0 0-.496 5.278c0 4.18.91 8.137 2.726 11.875 1.817 3.738 4.434 6.762 7.848 9.07-.883 5.387-2.617 9.512-5.203 12.367m95.57-38.425c-2.316-5.274-5.785-9.536-10.41-12.778C481.371 73.625 475.81 72 469.313 72c-6.723 0-12.782 1.844-18.176 5.523-5.395 3.688-9.664 8.801-12.801 15.34a45.183 45.183 0 0 0-2.863 7.715c-3.836.758-7.317 1.238-10.434 1.438-.883-8.465-3.887-15.586-9.004-21.356-5.12-5.773-11.87-8.66-20.238-8.66-6.832 0-13.05 1.844-18.668 5.523-5.617 3.688-10.024 8.801-13.219 15.34a44.646 44.646 0 0 0-2.863 7.567c-5.242.984-9.586 1.57-12.996 1.75 2.644-6.375 3.965-12.04 3.965-16.985 0-4.289-.989-7.558-2.973-9.812-1.98-2.254-4.57-3.383-7.762-3.383-3.636 0-6.886 1.102-9.75 3.3-2.867 2.2-5.12 5.055-6.773 8.575-1.653 3.52-2.477 7.148-2.477 10.883 0 4.398.824 8.191 2.477 11.379-3.305 5.828-8.262 13.633-14.867 23.418-1.543-20.227-2.313-36.664-2.313-49.309 0-3.078-.582-5.219-1.734-6.433-1.156-1.208-3.223-1.813-6.2-1.813-2.421 0-4.484.578-6.19 1.73-1.712 1.157-3.169 3.383-4.38 6.68-6.277 17.043-13.16 33.426-20.652 49.145-1.543-20.227-2.313-36.664-2.313-49.309 0-2.969-.687-5.082-2.062-6.348-1.383-1.261-3.5-1.898-6.363-1.898-3.747 0-6.555.719-8.426 2.145-1.871 1.43-2.863 3.957-2.973 7.585v5.774c0 11.543.66 25.012 1.985 40.402.66 7.586 2.28 13.14 4.87 16.656 2.587 3.52 6.141 5.278 10.657 5.278 3.633 0 6.8-.934 9.5-2.805 2.695-1.867 5.394-5.219 8.094-10.058 2.699-4.836 5.754-11.875 9.168-21.11l.828 12.04c.547 7.808 1.953 13.413 4.21 16.82 2.258 3.41 5.59 5.113 9.997 5.113 3.965 0 7.515-1.156 10.656-3.465 3.14-2.309 6.91-6.594 11.316-12.863a331.329 331.329 0 0 0 10.575-15.996c4.296 1.32 8.863 1.98 13.71 1.98a55.81 55.81 0 0 0 7.442-.5c.398 4.73 1.543 9.184 3.46 13.363 2.423 5.278 5.974 9.512 10.657 12.7 4.68 3.187 10.324 4.78 16.934 4.78 7.82 0 14.812-2.776 20.98-8.327 6.168-5.551 10.297-12.946 12.39-22.18a84.081 84.081 0 0 0 10.028-1.016c.332 4.887 1.442 9.516 3.352 13.88 2.312 5.277 5.754 9.538 10.328 12.777 4.566 3.246 10.101 4.867 16.601 4.867 6.61 0 12.641-1.84 18.09-5.528 5.453-3.68 9.774-8.792 12.969-15.335 3.195-6.54 4.793-13.989 4.793-22.344 0-6.047-1.156-11.707-3.469-16.988" style="stroke:none;fill-rule:nonzero;fill:#0c68b0;fill-opacity:1"/></g><path d="M265.766 173.992a4.874 4.874 0 0 1-.254 1.59c-.157.48-.399.934-.715 1.332a3.4 3.4 0 0 1-1.09.895c-.422.218-.887.324-1.426.324h-6.07v-8.25h5.906c.485 0 .934.105 1.371.316.442.219.84.52 1.168.89.34.38.614.825.813 1.325.199.504.3 1.04.297 1.578m-9.555 6.762h6.125a5.74 5.74 0 0 0 2.555-.578 6.235 6.235 0 0 0 1.953-1.524 6.91 6.91 0 0 0 1.246-2.152 7.305 7.305 0 0 0 .437-2.508c0-.808-.156-1.625-.472-2.422a7.288 7.288 0 0 0-1.297-2.144 6.56 6.56 0 0 0-2.008-1.543 5.725 5.725 0 0 0-2.578-.594h-8.695v20.82h2.734ZM293.742 185.516h-11.656v-18.223h-2.738v20.816h14.394ZM320.223 177.754v-10.461h-2.735v10.46c0 .993-.101 1.99-.304 2.97-.196.941-.524 1.793-.985 2.527a5.086 5.086 0 0 1-1.828 1.723c-.766.433-1.758.652-2.953.652-1.184 0-2.164-.215-2.918-.64a5.232 5.232 0 0 1-1.848-1.708 7.153 7.153 0 0 1-1.004-2.5 15.122 15.122 0 0 1-.304-3.023v-10.461h-2.735v10.46c0 1.294.141 2.56.418 3.77a9.653 9.653 0 0 0 1.446 3.372c.691 1.007 1.617 1.828 2.75 2.437 1.136.606 2.558.914 4.222.914 1.602 0 2.985-.293 4.098-.871a7.608 7.608 0 0 0 2.742-2.36c.688-.968 1.188-2.105 1.492-3.374.293-1.235.446-2.543.446-3.887M346.879 188.11h2.543v-10.801h-6.969v2.457h4.426v2.851c-.879 1.024-1.797 1.781-2.73 2.258-1.868.957-4.09.992-5.876.117a7.454 7.454 0 0 1-2.289-1.726 8.339 8.339 0 0 1-2.097-5.567c0-1 .164-1.992.488-2.941a8.038 8.038 0 0 1 1.398-2.54 7.05 7.05 0 0 1 2.188-1.78c.832-.442 1.781-.665 2.82-.665 1.258 0 2.399.266 3.39.79.962.507 1.75 1.347 2.345 2.5l.324.628 2.293-1.363-.274-.55a9.239 9.239 0 0 0-1.234-1.856 7.463 7.463 0 0 0-1.75-1.477 8.691 8.691 0 0 0-2.266-.953c-.832-.226-1.773-.34-2.796-.34-1.403 0-2.711.297-3.899.88a9.737 9.737 0 0 0-3.055 2.343 11.068 11.068 0 0 0-1.992 3.355 11.24 11.24 0 0 0-.715 3.942c0 1.3.246 2.601.73 3.86a11.432 11.432 0 0 0 2.016 3.382c.868 1 1.922 1.82 3.106 2.41a8.712 8.712 0 0 0 3.973.922c2.18 0 4.16-.758 5.902-2.258ZM363.75 167.293h-2.738v20.816h2.738ZM391.094 183.21l-12.703-15.917h-2.063v20.816h2.735v-15.617l12.488 15.617h2.277v-20.816h-2.734ZM418.68 178.246c-.645-.437-1.438-.8-2.348-1.086a32.42 32.42 0 0 0-2.898-.742 46.53 46.53 0 0 1-2.547-.621c-.649-.184-1.188-.406-1.602-.664-.363-.23-.633-.5-.797-.809-.168-.312-.25-.726-.25-1.234 0-1.028.348-1.817 1.063-2.414.746-.617 2.004-.93 3.742-.93 2.133 0 3.723.617 4.863 1.895l.582.644 1.492-2.289-.402-.383a8.67 8.67 0 0 0-2.918-1.851c-1.058-.403-2.277-.61-3.617-.61-1.082 0-2.086.13-2.988.383-.922.262-1.727.656-2.399 1.172a5.626 5.626 0 0 0-1.601 1.941c-.387.77-.582 1.653-.582 2.633 0 .906.164 1.684.488 2.309.34.644.832 1.191 1.434 1.597.593.415 1.328.758 2.19 1.024.93.281 1.872.52 2.825.715.887.187 1.766.41 2.637.672.707.218 1.293.48 1.742.773.414.27.727.586.926.938.2.347.297.785.297 1.304 0 1.032-.371 1.774-1.137 2.27-.848.547-2.074.828-3.64.828-1.387 0-2.65-.238-3.755-.703-1.101-.465-2.046-1.106-2.804-1.895l-.574-.601-1.516 2.293.418.382c2.223 2.047 4.976 3.086 8.176 3.086 1.097 0 2.11-.117 3.011-.351.926-.238 1.743-.598 2.418-1.074a5.207 5.207 0 0 0 1.637-1.836c.387-.735.586-1.598.586-2.563 0-.969-.191-1.808-.562-2.488a4.955 4.955 0 0 0-1.59-1.715M453.676 179.445h-6.715v-4.086h7.91v-2.214h-10.226v14.972h2.316v-6.492h6.715ZM465.598 185.55a4.892 4.892 0 0 1-1.516-1.175 5.382 5.382 0 0 1-.992-1.715 5.902 5.902 0 0 1-.012-3.996c.23-.637.559-1.219.985-1.727.414-.5.921-.906 1.507-1.21.567-.293 1.215-.442 1.922-.442.676 0 1.297.14 1.856.426.57.289 1.082.691 1.5 1.176.437.508.777 1.09 1.007 1.718.473 1.29.48 2.704.016 3.993a5.854 5.854 0 0 1-.976 1.734c-.41.496-.915.906-1.489 1.203-1.105.578-2.648.594-3.808.016m7.03-10.078a7.202 7.202 0 0 0-2.222-1.743c-1.726-.882-3.965-.906-5.742-.046-.851.41-1.61.98-2.238 1.683a8.038 8.038 0 0 0-1.469 2.41 7.836 7.836 0 0 0-.539 2.856c0 .945.172 1.883.504 2.785a7.699 7.699 0 0 0 1.433 2.418 7.447 7.447 0 0 0 2.22 1.707c.87.445 1.847.668 2.902.668a6.394 6.394 0 0 0 2.828-.633 7.184 7.184 0 0 0 2.238-1.672 7.855 7.855 0 0 0 1.504-8.012 8.076 8.076 0 0 0-1.418-2.421M490.125 178.04c0 .347-.055.694-.168 1.026-.102.317-.262.61-.469.868-.199.242-.445.445-.722.59-.27.144-.57.214-.88.21h-4.124v-5.375h3.992c.305 0 .61.07.879.207.293.149.55.348.77.59.222.246.398.54.53.867.13.325.196.668.192 1.016m-6.363 4.93h3.394l3.313 5.148h2.719l-3.583-5.574a4.303 4.303 0 0 0 1.813-1.395c.328-.425.582-.918.758-1.453a5.27 5.27 0 0 0 .265-1.656c0-.594-.117-1.191-.343-1.773a5.216 5.216 0 0 0-.95-1.555 4.704 4.704 0 0 0-1.46-1.129 4.204 4.204 0 0 0-1.899-.437h-6.34v14.972h2.313ZM270.898 216.52l-2.62-6.282 3.648-9.14h-3.778l-2.152 5.586-2.129-5.586h-3.777l3.644 9.144-2.597 6.274-6.184-15.528h-4.121l8.695 20.82h3.032l3.46-8.152 3.438 8.153h3.027l8.727-20.82h-4.149ZM304.813 211.398a8.156 8.156 0 0 1-.422 2.563 7.306 7.306 0 0 1-1.207 2.254 6.21 6.21 0 0 1-1.903 1.586c-.719.39-1.558.59-2.484.59-.899 0-1.723-.188-2.45-.559a5.883 5.883 0 0 1-1.902-1.531 7.268 7.268 0 0 1-1.246-2.25 7.978 7.978 0 0 1-.445-2.653c0-.875.144-1.746.433-2.585.27-.813.684-1.57 1.22-2.239a6.1 6.1 0 0 1 1.898-1.558c.722-.387 1.562-.582 2.492-.582.879 0 1.687.187 2.402.554.73.38 1.383.899 1.914 1.528.551.66.977 1.418 1.254 2.23.297.856.445 1.75.445 2.652m1.145-7.187a10.338 10.338 0 0 0-3.09-2.418c-1.203-.625-2.566-.941-4.043-.941a9.141 9.141 0 0 0-3.96.875 10.026 10.026 0 0 0-3.137 2.34 11.005 11.005 0 0 0-2.063 3.355 10.837 10.837 0 0 0-.746 3.976c0 1.317.238 2.622.703 3.883a10.733 10.733 0 0 0 1.992 3.375 9.956 9.956 0 0 0 3.106 2.383c1.215.602 2.578.906 4.05.906a9.112 9.112 0 0 0 3.958-.875 9.93 9.93 0 0 0 3.12-2.324 10.916 10.916 0 0 0 2.051-3.344c.497-1.261.747-2.597.747-3.976 0-1.301-.235-2.594-.7-3.84a11.104 11.104 0 0 0-1.988-3.375M330.523 210.316c-.226.297-.515.54-.847.715a2.22 2.22 0 0 1-1.074.25h-5.247v-6.765h5.082c.375 0 .727.082 1.067.246.351.172.648.406.914.715.273.316.492.687.656 1.101.164.406.242.844.242 1.305 0 .457-.07.902-.21 1.328a3.615 3.615 0 0 1-.583 1.105m1.95 3.102a6.16 6.16 0 0 0 1.445-1.473 6.866 6.866 0 0 0 .918-1.902 7.51 7.51 0 0 0 .316-2.16c0-.848-.164-1.692-.488-2.508a7.452 7.452 0 0 0-1.34-2.195 6.706 6.706 0 0 0-2.078-1.586 5.973 5.973 0 0 0-2.672-.606h-9.023v20.82h3.804v-7h4.141l4.453 7h4.38l-4.927-7.78a5.568 5.568 0 0 0 1.07-.61M360.105 211.371a8.971 8.971 0 0 1-.421 2.8 6.37 6.37 0 0 1-1.192 2.177 5.366 5.366 0 0 1-1.933 1.414c-.782.343-1.696.52-2.715.52h-3.625v-13.766h3.625c1 0 1.902.172 2.676.507.742.317 1.41.79 1.957 1.387.53.586.937 1.305 1.207 2.133.28.855.421 1.809.421 2.828m1.301-7.305c-.847-.949-1.922-1.703-3.187-2.254-1.262-.546-2.735-.824-4.375-.824h-7.43v20.82h7.43c1.508 0 2.902-.253 4.14-.75a9.145 9.145 0 0 0 3.211-2.128c.887-.914 1.575-2.028 2.043-3.309.469-1.266.703-2.695.703-4.25 0-1.398-.21-2.742-.625-3.984a9.352 9.352 0 0 0-1.91-3.32M386.45 207.887c0 .472-.075.93-.216 1.351a3.615 3.615 0 0 1-.582 1.106 2.397 2.397 0 0 1-.836.695c-.336.168-.707.25-1.086.242h-5.023v-6.765h4.86c.382 0 .734.078 1.078.238.347.164.652.394.91.687a3.73 3.73 0 0 1 .894 2.446m2.004-4.707a6.69 6.69 0 0 0-2.074-1.586 5.979 5.979 0 0 0-2.676-.606h-8.805v20.82h3.809v-7h5.164c.961 0 1.848-.199 2.645-.59a6.373 6.373 0 0 0 2.023-1.562 7.066 7.066 0 0 0 1.29-2.21c.3-.821.456-1.688.452-2.56 0-.847-.164-1.69-.484-2.507a7.482 7.482 0 0 0-1.344-2.2M411.805 210.316c-.23.297-.52.54-.848.715a2.24 2.24 0 0 1-1.074.25h-5.246v-6.765h5.078c.37-.004.738.082 1.07.246.344.172.652.41.914.715.278.328.5.703.656 1.101.16.406.243.844.243 1.309 0 .453-.07.902-.215 1.324a3.692 3.692 0 0 1-.578 1.105m1.945 3.102a6.25 6.25 0 0 0 1.45-1.473c.394-.57.702-1.207.913-1.902a7.39 7.39 0 0 0 .32-2.156c0-.848-.163-1.692-.488-2.512a7.452 7.452 0 0 0-1.34-2.195 6.706 6.706 0 0 0-2.078-1.586 5.962 5.962 0 0 0-2.672-.606h-9.027v20.82h3.809v-7h4.136l4.454 7h4.382l-4.93-7.78a5.343 5.343 0 0 0 1.071-.61M431.5 212.887h9.156v-3.39H431.5v-4.981h10.531v-3.528h-14.34v20.82h14.586v-3.527H431.5ZM465.914 211.602c-.629-.457-1.39-.844-2.266-1.149a25.22 25.22 0 0 0-2.804-.773c-.864-.2-1.621-.387-2.25-.567-.586-.168-1.078-.363-1.457-.582-.328-.187-.563-.406-.707-.652-.14-.242-.211-.57-.211-.98 0-.786.265-1.38.808-1.817.582-.469 1.567-.703 2.926-.703.535 0 1.055.055 1.547.164.473.102.934.242 1.383.43.394.16.773.359 1.133.586.308.203.558.41.738.62l.613.712 1.906-3.305-.437-.36a10.742 10.742 0 0 0-3.02-1.726c-1.132-.43-2.414-.648-3.808-.648-1.067 0-2.07.132-2.988.398-.946.27-1.77.684-2.461 1.23a5.867 5.867 0 0 0-1.641 2.04c-.39.8-.59 1.734-.59 2.761 0 .864.152 1.621.45 2.258a4.429 4.429 0 0 0 1.34 1.649c.554.421 1.245.785 2.058 1.082.879.312 1.773.578 2.683.789a55.85 55.85 0 0 1 2.371.636c.657.196 1.204.422 1.633.668.383.219.672.477.864.762.175.27.261.602.261 1.023 0 .762-.27 1.29-.851 1.66-.657.422-1.625.637-2.883.637a9.34 9.34 0 0 1-2.012-.215 11.089 11.089 0 0 1-1.816-.57 8.913 8.913 0 0 1-1.48-.777 5.996 5.996 0 0 1-1.024-.832l-.621-.664-1.903 3.363.434.355a12.616 12.616 0 0 0 3.871 2.157c1.45.496 2.969.746 4.496.738 1.055 0 2.051-.113 2.965-.336.938-.226 1.77-.594 2.465-1.09a5.59 5.59 0 0 0 1.703-1.933c.418-.782.629-1.703.629-2.743 0-.976-.18-1.824-.527-2.52a4.91 4.91 0 0 0-1.52-1.776M492.98 213.379a4.92 4.92 0 0 0-1.523-1.777c-.629-.457-1.39-.844-2.266-1.149-.836-.289-1.785-.55-2.804-.773-.864-.2-1.621-.39-2.25-.567-.586-.168-1.078-.367-1.457-.582-.328-.187-.563-.406-.703-.652-.145-.242-.215-.57-.215-.98 0-.786.265-1.38.812-1.817.578-.469 1.563-.703 2.922-.703.535 0 1.055.055 1.547.164a7.46 7.46 0 0 1 1.383.43c.394.16.773.359 1.133.586.312.203.558.41.738.617l.613.719 1.906-3.31-.437-.358a10.742 10.742 0 0 0-3.02-1.727c-1.129-.43-2.414-.648-3.808-.648-1.067 0-2.07.132-2.988.398-.942.27-1.77.684-2.458 1.23a5.834 5.834 0 0 0-1.644 2.04c-.39.8-.59 1.73-.59 2.761 0 .864.152 1.625.45 2.258a4.386 4.386 0 0 0 1.34 1.645c.554.425 1.245.789 2.058 1.086.879.312 1.773.578 2.683.789a54.32 54.32 0 0 1 2.371.636c.657.196 1.204.422 1.633.668.383.219.676.477.864.766.175.266.261.598.261 1.02 0 .761-.27 1.288-.847 1.66-.66.421-1.63.636-2.887.636a9.195 9.195 0 0 1-2.012-.215 11.48 11.48 0 0 1-1.816-.57 8.63 8.63 0 0 1-1.48-.777 5.968 5.968 0 0 1-1.024-.832l-.617-.664-1.907 3.363.434.355a12.59 12.59 0 0 0 3.875 2.157c1.445.496 2.965.746 4.492.738 1.055 0 2.051-.113 2.965-.336.938-.226 1.77-.594 2.469-1.09a5.54 5.54 0 0 0 1.699-1.933c.418-.782.629-1.703.629-2.743 0-.976-.176-1.828-.524-2.52" style="stroke:none;fill-rule:nonzero;fill:#0c68b0;fill-opacity:1"/></svg>