<svg xmlns="http://www.w3.org/2000/svg" id="Layer_1" version="1.1" viewBox="0 0 500 224"><defs><linearGradient id="linear-gradient" x1="-19" x2="245.8" y1="162.2" y2="18.3" gradientUnits="userSpaceOnUse"><stop offset="0" stop-color="#6d388c"/><stop offset=".8" stop-color="#0c68b0"/></linearGradient><style>.st1{fill:#fff}.st2{fill:#0c68b0}</style></defs><path d="M121.7 223H.1V.8h222.2v121.6c0 27.8-11.3 52.9-29.5 71.1S149.5 223 121.7 223Z" style="fill:url(#linear-gradient)"/><path d="M47.8 150.4V73.3h31.9c3.3 0 6.4.7 9.2 2.1 2.8 1.4 5.2 3.3 7.2 5.5 2 2.3 3.6 4.9 4.8 7.8 1.2 2.9 1.7 5.8 1.7 8.8s-.5 6.2-1.6 9.2c-1.1 2.9-2.6 5.5-4.6 7.8-2 2.2-4.3 4.1-7 5.4-2.7 1.4-5.7 2.1-9.1 2.1h-25v28.4h-7.6Zm7.6-35.2H80c2.2 0 4.3-.5 6.1-1.5 1.8-1 3.4-2.3 4.7-3.9s2.3-3.5 3-5.6c.7-2.1 1.1-4.4 1.1-6.7s-.4-4.6-1.2-6.8c-.8-2.1-2-4-3.4-5.6-1.4-1.6-3.1-2.8-5-3.7-1.9-.9-3.9-1.4-6-1.4h-24v35.2ZM180.9 80.1h-27.5v70.3h-7.6V80.1h-27.5v-6.7h62.5v6.7Z" class="st1"/><path d="M496.5 90.6c-2.3-5.3-5.8-9.6-10.4-12.8-4.6-3.2-10.2-4.9-16.7-4.9s-12.8 1.8-18.2 5.5c-5.4 3.7-9.7 8.8-12.8 15.4-1.2 2.5-2.1 5-2.9 7.7-3.8.8-7.3 1.2-10.4 1.4-.9-8.5-3.9-15.6-9-21.4-5.1-5.8-11.9-8.7-20.2-8.7s-13.1 1.8-18.7 5.5-10 8.8-13.2 15.4c-1.2 2.4-2.1 4.9-2.9 7.6-5.2 1-9.6 1.6-13 1.8 2.6-6.4 4-12.1 4-17s-1-7.6-3-9.8c-2-2.3-4.6-3.4-7.8-3.4s-6.9 1.1-9.8 3.3c-2.9 2.2-5.1 5.1-6.8 8.6-1.7 3.5-2.5 7.2-2.5 10.9s.8 8.2 2.5 11.4c-3.3 5.8-8.3 13.7-14.9 23.5-1.5-20.3-2.3-36.7-2.3-49.4s-.6-5.2-1.7-6.4c-1.2-1.2-3.2-1.8-6.2-1.8s-4.5.6-6.2 1.7c-1.7 1.2-3.2 3.4-4.4 6.7-6.3 17.1-13.2 33.5-20.7 49.3-1.5-20.3-2.3-36.7-2.3-49.4s-.7-5.1-2.1-6.4c-1.4-1.3-3.5-1.9-6.4-1.9s-6.6.7-8.4 2.1c-1.9 1.4-2.9 4-3 7.6v5.8c0 11.6.7 25.1 2 40.5.7 7.6 2.3 13.2 4.9 16.7 2.6 3.5 6.1 5.3 10.7 5.3s6.8-.9 9.5-2.8 5.4-5.2 8.1-10.1c2.7-4.8 5.8-11.9 9.2-21.2l.8 12.1c.5 7.8 2 13.4 4.2 16.9 2.3 3.4 5.6 5.1 10 5.1s7.5-1.2 10.7-3.5c3.1-2.3 6.9-6.6 11.3-12.9 3.9-5.5 7.4-10.9 10.6-16 4.3 1.3 8.9 2 13.7 2s5-.2 7.4-.5c.4 4.7 1.5 9.2 3.5 13.4 2.4 5.3 6 9.5 10.7 12.7 4.7 3.2 10.3 4.8 16.9 4.8s14.8-2.8 21-8.3c6.2-5.6 10.3-13 12.4-22.2 3.5-.1 6.8-.5 10-1 .3 4.9 1.4 9.5 3.4 13.9 2.3 5.3 5.8 9.6 10.3 12.8 4.6 3.3 10.1 4.9 16.6 4.9s12.6-1.8 18.1-5.5c5.5-3.7 9.8-8.8 13-15.4 3.2-6.6 4.8-14 4.8-22.4s-1.2-11.7-3.5-17Zm-95.6 38.5c-2.6 2.9-5.6 4.3-9.2 4.3s-6-1.6-8.3-4.8c-2.4-3.2-3.6-7.8-3.6-13.9s1.5-13.7 4.4-17.9c2.9-4.2 6.6-6.4 11-6.4h.8c-.3 1.8-.5 3.5-.5 5.3 0 4.2.9 8.2 2.7 11.9 1.8 3.7 4.4 6.8 7.9 9.1-.9 5.4-2.6 9.5-5.2 12.4Zm74.6-2.1c-2.6 4.1-5.8 6.1-9.5 6.1s-6.1-1.5-8.3-4.5c-2.2-3-3.3-7.6-3.3-13.9s1.3-13.9 3.9-17.9c2.6-4 5.9-6 9.8-6s5.7 1.5 7.9 4.6c2.2 3.1 3.3 7.7 3.3 13.7s-1.3 13.8-3.9 17.9ZM256.2 181.9h6.1c.9 0 1.8-.2 2.6-.6.8-.4 1.4-.9 2-1.5.5-.6 1-1.4 1.2-2.2.3-.8.4-1.6.4-2.5s-.2-1.6-.5-2.4c-.3-.8-.8-1.5-1.3-2.1-.6-.6-1.2-1.2-2-1.5-.8-.4-1.7-.6-2.6-.6h-8.7v20.9h2.7V182Zm9.6-6.8c0 .6 0 1.1-.3 1.6-.2.5-.4 1-.7 1.3-.3.4-.7.7-1.1.9-.4.2-.9.3-1.4.3h-6.1v-8.3h5.9c.5 0 .9.1 1.4.3.4.2.8.5 1.2.9.3.4.6.8.8 1.3.2.5.3 1 .3 1.6ZM293.8 186.7h-11.7v-18.3h-2.7v20.9h14.4v-2.6zM320.3 178.9v-10.5h-2.7v10.5c0 1-.1 2-.3 3-.2.9-.5 1.8-1 2.5-.4.7-1.1 1.3-1.8 1.7-.8.4-1.8.7-3 .7s-2.2-.2-2.9-.6c-.8-.4-1.4-1-1.8-1.7-.5-.7-.8-1.6-1-2.5-.2-1-.3-2-.3-3v-10.5h-2.7V179c0 1.3.1 2.6.4 3.8.3 1.3.8 2.4 1.4 3.4.7 1 1.6 1.8 2.8 2.4 1.1.6 2.6.9 4.2.9s3-.3 4.1-.9c1.1-.6 2-1.4 2.7-2.4.7-1 1.2-2.1 1.5-3.4.3-1.2.4-2.5.4-3.9ZM346.9 189.3h2.5v-10.8h-7v2.5h4.4v2.9c-.9 1-1.8 1.8-2.7 2.3-1.9 1-4.1 1-5.9.1-.9-.4-1.6-1-2.3-1.7-.6-.7-1.2-1.6-1.5-2.5-.4-1-.6-2-.6-3s.2-2 .5-2.9c.3-.9.8-1.8 1.4-2.5.6-.7 1.3-1.3 2.2-1.8.8-.4 1.8-.7 2.8-.7s2.4.3 3.4.8 1.8 1.4 2.3 2.5l.3.6 2.3-1.4-.3-.6c-.3-.7-.7-1.3-1.2-1.9-.5-.6-1.1-1.1-1.8-1.5-.7-.4-1.4-.7-2.3-1-.8-.2-1.8-.3-2.8-.3s-2.7.3-3.9.9c-1.2.6-2.2 1.4-3.1 2.3-.8 1-1.5 2.1-2 3.4-.5 1.3-.7 2.6-.7 3.9s.2 2.6.7 3.9c.5 1.3 1.2 2.4 2 3.4.9 1 1.9 1.8 3.1 2.4 1.2.6 2.6.9 4 .9 2.2 0 4.2-.8 5.9-2.3v2.1ZM361.1 168.4h2.7v20.9h-2.7zM391.2 184.4l-12.7-16h-2.1v20.9h2.7v-15.7l12.5 15.7h2.3v-20.9h-2.7v16zM418.8 179.4c-.6-.4-1.4-.8-2.3-1.1-.9-.3-1.8-.5-2.9-.7-1-.2-1.9-.4-2.5-.6-.6-.2-1.2-.4-1.6-.7-.4-.2-.6-.5-.8-.8-.2-.3-.3-.7-.3-1.2 0-1 .3-1.8 1.1-2.4.7-.6 2-.9 3.7-.9s3.7.6 4.9 1.9l.6.6 1.5-2.3-.4-.4c-.9-.8-1.9-1.5-2.9-1.9-1.1-.4-2.3-.6-3.6-.6s-2.1.1-3 .4c-.9.3-1.7.7-2.4 1.2s-1.2 1.2-1.6 1.9c-.4.8-.6 1.7-.6 2.6s.2 1.7.5 2.3c.3.6.8 1.2 1.4 1.6.6.4 1.3.8 2.2 1 .8.3 1.8.5 2.8.7 1 .2 1.9.4 2.6.7.7.2 1.3.5 1.7.8.4.3.7.6.9.9.2.3.3.8.3 1.3 0 1-.4 1.8-1.1 2.3-.8.5-2.1.8-3.6.8s-2.7-.2-3.8-.7c-1.1-.5-2-1.1-2.8-1.9l-.6-.6-1.5 2.3.4.4c2.2 2.1 5 3.1 8.2 3.1s2.1-.1 3-.4c.9-.2 1.7-.6 2.4-1.1.7-.5 1.2-1.1 1.6-1.8.4-.7.6-1.6.6-2.6s-.2-1.8-.6-2.5c-.4-.7-.9-1.3-1.6-1.7ZM453.8 180.6h-6.7v-4.1h7.9v-2.2h-10.3v15h2.4v-6.5h6.7v-2.2zM472.7 176.6c-.6-.7-1.4-1.3-2.2-1.7-1.7-.9-4-.9-5.7 0-.9.4-1.6 1-2.2 1.7-.6.7-1.1 1.5-1.5 2.4-.4.9-.5 1.9-.5 2.9s.2 1.9.5 2.8c.3.9.8 1.7 1.4 2.4.6.7 1.4 1.3 2.2 1.7.9.4 1.8.7 2.9.7s2-.2 2.8-.6c.9-.4 1.6-1 2.2-1.7.6-.7 1.1-1.5 1.5-2.4.4-.9.5-1.9.5-2.9s-.2-1.8-.5-2.7c-.3-.9-.8-1.7-1.4-2.4Zm-7 10.1c-.6-.3-1.1-.7-1.5-1.2-.4-.5-.8-1.1-1-1.7-.2-.6-.4-1.3-.4-2s.1-1.3.3-2c.2-.6.6-1.2 1-1.7s.9-.9 1.5-1.2c.6-.3 1.2-.4 1.9-.4s1.3.1 1.9.4c.6.3 1.1.7 1.5 1.2.4.5.8 1.1 1 1.7.2.6.4 1.3.4 2s-.1 1.3-.3 2c-.2.6-.6 1.2-1 1.7s-.9.9-1.5 1.2c-1.1.6-2.7.6-3.8 0ZM483.9 184.1h3.4l3.3 5.2h2.7l-3.6-5.6c.2 0 .4-.2.6-.3.5-.3.9-.7 1.2-1.1.3-.4.6-.9.8-1.5.2-.5.3-1.1.3-1.7s-.1-1.2-.3-1.8c-.2-.6-.5-1.1-.9-1.6s-.9-.8-1.5-1.1c-.6-.3-1.2-.4-1.9-.4h-6.3v15h2.3V184Zm6.3-4.9c0 .3 0 .7-.2 1-.1.3-.3.6-.5.9-.2.2-.4.4-.7.6-.3.1-.6.2-.9.2h-4.1v-5.4h4c.3 0 .6 0 .9.2.3.1.5.3.8.6.2.2.4.5.5.9.1.3.2.7.2 1ZM270.9 217.8l-2.6-6.3 3.6-9.2h-3.7l-2.2 5.6-2.1-5.6h-3.8l3.6 9.2-2.6 6.3-6.1-15.6h-4.2l8.7 20.9h3.1l3.4-8.2 3.5 8.2h3l8.7-20.9h-4.1l-6.2 15.6zM306 205.4c-.9-1-1.9-1.8-3.1-2.4-1.2-.6-2.6-.9-4-.9s-2.7.3-4 .9c-1.2.6-2.3 1.4-3.1 2.3-.9 1-1.6 2.1-2.1 3.4-.5 1.3-.7 2.6-.7 4s.2 2.6.7 3.9c.5 1.3 1.1 2.4 2 3.4.9 1 1.9 1.8 3.1 2.4 1.2.6 2.6.9 4.1.9s2.7-.3 4-.9c1.2-.6 2.3-1.4 3.1-2.3.9-1 1.6-2.1 2.1-3.4.5-1.3.7-2.6.7-4s-.2-2.6-.7-3.8c-.5-1.3-1.1-2.4-2-3.4Zm-1.2 7.2c0 .9-.1 1.7-.4 2.6-.3.8-.7 1.6-1.2 2.3-.5.7-1.2 1.2-1.9 1.6-.7.4-1.6.6-2.5.6s-1.7-.2-2.4-.6c-.7-.4-1.4-.9-1.9-1.5s-1-1.4-1.2-2.3c-.3-.9-.4-1.7-.4-2.7s.1-1.8.4-2.6c.3-.8.7-1.6 1.2-2.2.5-.6 1.2-1.2 1.9-1.6.7-.4 1.6-.6 2.5-.6s1.7.2 2.4.6c.7.4 1.4.9 1.9 1.5s1 1.4 1.3 2.2c.3.9.4 1.7.4 2.7ZM332.5 214.7c.6-.4 1.1-.9 1.4-1.5.4-.6.7-1.2.9-1.9.2-.7.3-1.4.3-2.2s-.2-1.7-.5-2.5-.8-1.6-1.3-2.2c-.6-.7-1.3-1.2-2.1-1.6-.8-.4-1.7-.6-2.7-.6h-9v20.9h3.8v-7h4.1l4.5 7h4.4l-4.9-7.8c.4-.2.7-.4 1.1-.6Zm-1.9-3.2c-.2.3-.5.5-.8.7-.3.2-.7.3-1.1.3h-5.2v-6.8h5.1c.4 0 .7 0 1.1.2.4.2.6.4.9.7.3.3.5.7.7 1.1.2.4.2.8.2 1.3s0 .9-.2 1.3c-.1.4-.3.8-.6 1.1ZM361.5 205.3c-.8-.9-1.9-1.7-3.2-2.3-1.3-.5-2.7-.8-4.4-.8h-7.4v20.9h7.4c1.5 0 2.9-.3 4.1-.7 1.2-.5 2.3-1.2 3.2-2.1.9-.9 1.6-2 2-3.3.5-1.3.7-2.7.7-4.3s-.2-2.7-.6-4c-.4-1.3-1.1-2.4-1.9-3.3Zm-1.3 7.3c0 1-.1 1.9-.4 2.8-.3.8-.7 1.6-1.2 2.2-.5.6-1.2 1.1-1.9 1.4-.8.3-1.7.5-2.7.5h-3.6v-13.8h3.6c1 0 1.9.2 2.7.5.8.3 1.4.8 2 1.4.5.6.9 1.3 1.2 2.1.3.9.4 1.8.4 2.8ZM388.5 204.4c-.6-.7-1.3-1.2-2.1-1.6-.8-.4-1.7-.6-2.7-.6h-8.8v20.9h3.8v-7h5.2c1 0 1.9-.2 2.6-.6.8-.4 1.5-.9 2-1.6.6-.6 1-1.4 1.3-2.2.3-.8.5-1.7.5-2.6s-.2-1.7-.5-2.5-.8-1.6-1.3-2.2Zm-2 4.7c0 .5 0 .9-.2 1.4-.1.4-.3.8-.6 1.1-.2.3-.5.5-.8.7-.3.2-.7.2-1.1.2h-5v-6.8h4.9c.4 0 .7 0 1.1.2.3.2.7.4.9.7.3.3.5.7.7 1.1.2.4.2.9.2 1.4ZM413.8 214.7c.6-.4 1.1-.9 1.4-1.5.4-.6.7-1.2.9-1.9.2-.7.3-1.4.3-2.2s-.2-1.7-.5-2.5-.8-1.6-1.3-2.2c-.6-.7-1.3-1.2-2.1-1.6-.8-.4-1.7-.6-2.7-.6h-9v20.9h3.8v-7h4.1l4.5 7h4.4l-4.9-7.8c.4-.2.7-.4 1.1-.6Zm-1.9-3.2c-.2.3-.5.5-.8.7-.3.2-.7.3-1.1.3h-5.2v-6.8h5.1c.4 0 .7 0 1.1.2.3.2.7.4.9.7.3.3.5.7.7 1.1.2.4.2.8.2 1.3s0 .9-.2 1.3c-.1.4-.3.8-.6 1.1ZM431.6 214.1h9.2v-3.4h-9.2v-5h10.5v-3.5h-14.3v20.9h14.6v-3.6h-10.8v-5.4zM466 212.8c-.6-.5-1.4-.8-2.3-1.1-.8-.3-1.8-.6-2.8-.8-.9-.2-1.6-.4-2.2-.6-.6-.2-1.1-.4-1.5-.6-.3-.2-.6-.4-.7-.7-.1-.2-.2-.6-.2-1 0-.8.3-1.4.8-1.8.6-.5 1.6-.7 2.9-.7s1.1 0 1.5.2c.5.1 1 .3 1.4.4.4.2.8.4 1.1.6.3.2.6.4.7.6l.6.7 1.9-3.3-.4-.4c-.9-.7-1.9-1.3-3-1.7-1.1-.4-2.4-.6-3.8-.6s-2.1.1-3 .4c-.9.3-1.8.7-2.5 1.2-.7.6-1.3 1.2-1.6 2-.4.8-.6 1.7-.6 2.8s.2 1.6.4 2.3c.3.6.8 1.2 1.3 1.7.6.4 1.2.8 2.1 1.1.8.3 1.7.5 2.7.8.9.2 1.7.4 2.4.6.7.2 1.2.4 1.6.7.4.2.7.5.9.8.2.3.3.6.3 1 0 .8-.3 1.3-.8 1.7-.7.4-1.6.6-2.9.6s-1.4 0-2-.2c-.6-.1-1.3-.3-1.8-.6-.6-.2-1-.5-1.5-.8-.4-.3-.8-.6-1-.8l-.6-.7-1.9 3.4.4.4c1.2.9 2.5 1.7 3.9 2.2 1.4.5 2.9.7 4.5.7s2.1-.1 3-.3c.9-.2 1.8-.6 2.5-1.1.7-.5 1.3-1.2 1.7-1.9.4-.8.6-1.7.6-2.7s-.2-1.8-.5-2.5-.9-1.3-1.5-1.8ZM493.1 214.6c-.3-.7-.9-1.3-1.5-1.8s-1.4-.8-2.3-1.1c-.8-.3-1.8-.6-2.8-.8-.9-.2-1.6-.4-2.2-.6-.6-.2-1.1-.4-1.5-.6-.3-.2-.6-.4-.7-.7-.1-.2-.2-.6-.2-1 0-.8.3-1.4.8-1.8.6-.5 1.6-.7 2.9-.7s1.1 0 1.5.2c.5.1 1 .3 1.4.4.4.2.8.4 1.1.6.3.2.6.4.7.6l.6.7 1.9-3.3-.4-.4c-.9-.7-1.9-1.3-3-1.7-1.1-.4-2.4-.6-3.8-.6s-2.1.1-3 .4c-.9.3-1.8.7-2.5 1.2-.7.6-1.3 1.2-1.6 2-.4.8-.6 1.7-.6 2.8s.2 1.6.4 2.3c.3.6.8 1.2 1.3 1.7.6.4 1.2.8 2.1 1.1.8.3 1.7.5 2.7.8.9.2 1.7.4 2.4.6.7.2 1.2.4 1.6.7.4.2.7.5.9.8.2.3.3.6.3 1 0 .8-.3 1.3-.8 1.7-.7.4-1.6.6-2.9.6s-1.4 0-2-.2c-.6-.1-1.3-.3-1.8-.6-.6-.2-1-.5-1.5-.8s-.8-.6-1-.8l-.6-.7-1.9 3.4.4.4c1.2.9 2.5 1.7 3.9 2.2 1.4.5 2.9.7 4.5.7s2.1-.1 3-.3c.9-.2 1.8-.6 2.5-1.1.7-.5 1.3-1.2 1.7-1.9.4-.8.6-1.7.6-2.7s-.2-1.8-.5-2.5Z" class="st2"/></svg>